<svg width="337" height="25" viewBox="0 0 337 25" fill="none" xmlns="http://www.w3.org/2000/svg">
<path opacity="0.4" d="M335.681 10.7143V15.4762C336.48 15.0729 337 14.1347 337 13.0952C337 12.0558 336.48 11.1176 335.681 10.7143Z" fill="black"/>
<path d="M314.825 10.0635C314.825 9.3271 315.422 8.73015 316.158 8.73015H331.368C332.105 8.73015 332.702 9.3271 332.702 10.0635V16.127C332.702 16.8634 332.105 17.4603 331.368 17.4603H316.158C315.422 17.4603 314.825 16.8634 314.825 16.127V10.0635Z" fill="black"/>
<path fill-rule="evenodd" clip-rule="evenodd" d="M300.256 9.05713C302.457 9.05725 304.573 10.0709 306.168 11.8885C306.288 12.0288 306.48 12.027 306.599 11.8845L307.747 10.4956C307.807 10.4233 307.84 10.3254 307.84 10.2235C307.839 10.1217 307.805 10.0242 307.744 9.95277C303.558 5.14379 296.954 5.14379 292.768 9.95277C292.707 10.0242 292.673 10.1216 292.672 10.2235C292.671 10.3253 292.705 10.4233 292.765 10.4956L293.913 11.8845C294.031 12.0273 294.223 12.029 294.343 11.8885C295.938 10.0707 298.055 9.05713 300.256 9.05713ZM300.256 13.5758C301.465 13.5757 302.631 14.1144 303.528 15.0873C303.649 15.2254 303.84 15.2224 303.958 15.0805L305.105 13.6917C305.165 13.6188 305.199 13.52 305.198 13.4173C305.197 13.3146 305.162 13.2166 305.1 13.1452C302.371 10.1019 298.144 10.1019 295.415 13.1452C295.353 13.2166 295.318 13.3146 295.317 13.4174C295.316 13.5201 295.35 13.6189 295.41 13.6917L296.557 15.0805C296.675 15.2224 296.866 15.2254 296.987 15.0873C297.883 14.1151 299.048 13.5764 300.256 13.5758ZM302.553 16.616C302.555 16.719 302.521 16.8183 302.46 16.8905L300.476 19.2901C300.418 19.3606 300.339 19.4003 300.256 19.4003C300.173 19.4003 300.094 19.3606 300.036 19.2901L298.052 16.8905C297.991 16.8183 297.957 16.7189 297.959 16.616C297.961 16.513 297.998 16.4154 298.062 16.3464C299.328 15.062 301.184 15.062 302.451 16.3464C302.514 16.4155 302.551 16.5131 302.553 16.616Z" fill="black"/>
<path fill-rule="evenodd" clip-rule="evenodd" d="M286.686 6.74603H285.693C285.144 6.74603 284.7 7.27903 284.7 7.93651V18.254C284.7 18.9115 285.144 19.4444 285.693 19.4444H286.686C287.235 19.4444 287.679 18.9115 287.679 18.254V7.93651C287.679 7.27903 287.235 6.74603 286.686 6.74603ZM281.058 9.52382H282.052C282.6 9.52382 283.045 10.0568 283.045 10.7143V18.254C283.045 18.9115 282.6 19.4445 282.052 19.4445H281.058C280.51 19.4445 280.065 18.9115 280.065 18.254V10.7143C280.065 10.0568 280.51 9.52382 281.058 9.52382ZM277.417 12.3016H276.424C275.875 12.3016 275.431 12.8346 275.431 13.4921V18.254C275.431 18.9114 275.875 19.4444 276.424 19.4444H277.417C277.965 19.4444 278.41 18.9114 278.41 18.254V13.4921C278.41 12.8346 277.965 12.3016 277.417 12.3016ZM272.782 14.6825H271.789C271.241 14.6825 270.796 15.2155 270.796 15.873V18.254C270.796 18.9114 271.241 19.4444 271.789 19.4444H272.782C273.331 19.4444 273.775 18.9114 273.775 18.254V15.873C273.775 15.2155 273.331 14.6825 272.782 14.6825Z" fill="black"/>
<path d="M16.1355 20.6373C18.8235 20.6373 20.4201 18.5352 20.4201 14.9757C20.4201 13.6353 20.1638 12.5074 19.6731 11.6358C18.9626 10.2809 17.7395 9.54843 16.1941 9.54843C13.8943 9.54843 12.2683 11.0938 12.2683 13.2618C12.2683 15.2979 13.7331 16.7774 15.7473 16.7774C16.9851 16.7774 17.9885 16.1988 18.4865 15.1954H18.5085C18.5085 15.1954 18.5378 15.1954 18.5451 15.1954C18.5598 15.1954 18.611 15.1954 18.611 15.1954C18.611 17.6124 17.6955 19.0553 16.1501 19.0553C15.2419 19.0553 14.5388 18.5572 14.2971 17.7589H12.4148C12.7297 19.4947 14.2019 20.6373 16.1355 20.6373ZM16.2014 15.276C14.9856 15.276 14.1213 14.4117 14.1213 13.2032C14.1213 12.024 15.0295 11.1231 16.2087 11.1231C17.3879 11.1231 18.2961 12.0387 18.2961 13.2325C18.2961 14.4117 17.4099 15.276 16.2014 15.276ZM23.5112 20.5348C24.207 20.5348 24.6831 20.0367 24.6831 19.3775C24.6831 18.711 24.207 18.2203 23.5112 18.2203C22.8228 18.2203 22.3394 18.711 22.3394 19.3775C22.3394 20.0367 22.8228 20.5348 23.5112 20.5348ZM23.5112 15.0416C24.207 15.0416 24.6831 14.5509 24.6831 13.8917C24.6831 13.2252 24.207 12.7345 23.5112 12.7345C22.8228 12.7345 22.3394 13.2252 22.3394 13.8917C22.3394 14.5509 22.8228 15.0416 23.5112 15.0416ZM31.5389 20.381H33.348V18.4107H34.7762V16.8141H33.348V9.8121H30.6819C28.8143 12.6246 27.3275 14.9757 26.3753 16.7262V18.4107H31.5389V20.381ZM28.1258 16.7481C29.3563 14.5802 30.4549 12.8443 31.4656 11.3502H31.5682V16.858H28.1258V16.7481ZM38.8048 20.381H40.6944V9.8121H38.8121L36.0509 11.7457V13.5621L38.6803 11.7164H38.8048V20.381Z" fill="black"/>
</svg>
